<mxfile host="app.diagrams.net" agent="Mozilla/5.0 (Windows NT 10.0; Win64; x64) AppleWebKit/537.36 (KHTML, like Gecko) Chrome/136.0.0.0 Safari/537.36" version="26.2.14">
  <diagram id="PJpoI-FHG1ks9sSy4taJ" name="Página-1">
    <mxGraphModel dx="1226" dy="671" grid="1" gridSize="10" guides="1" tooltips="1" connect="1" arrows="1" fold="1" page="1" pageScale="1" pageWidth="827" pageHeight="1169" math="0" shadow="0">
      <root>
        <mxCell id="0" />
        <mxCell id="1" parent="0" />
        <mxCell id="4N45tYZfWJHQnx3_KCYK-14" value="stockexchange" style="shape=folder;fontStyle=1;spacingTop=10;tabWidth=40;tabHeight=14;tabPosition=left;html=1;whiteSpace=wrap;verticalAlign=top;" vertex="1" parent="1">
          <mxGeometry x="650" y="40" width="230" height="320" as="geometry" />
        </mxCell>
        <mxCell id="4N45tYZfWJHQnx3_KCYK-8" value="stockexchange" style="rounded=0;whiteSpace=wrap;html=1;verticalAlign=top;" vertex="1" parent="1">
          <mxGeometry x="170" y="40" width="230" height="320" as="geometry" />
        </mxCell>
        <mxCell id="4N45tYZfWJHQnx3_KCYK-1" value="Usuário" style="shape=umlActor;verticalLabelPosition=bottom;verticalAlign=top;html=1;outlineConnect=0;" vertex="1" parent="1">
          <mxGeometry x="40" y="170" width="30" height="60" as="geometry" />
        </mxCell>
        <mxCell id="4N45tYZfWJHQnx3_KCYK-2" value="Solicitar Cálculo do Investimento" style="ellipse;whiteSpace=wrap;html=1;" vertex="1" parent="1">
          <mxGeometry x="225" y="160" width="120" height="80" as="geometry" />
        </mxCell>
        <mxCell id="4N45tYZfWJHQnx3_KCYK-5" value="" style="endArrow=none;html=1;rounded=0;exitX=0.5;exitY=0.5;exitDx=0;exitDy=0;exitPerimeter=0;entryX=0;entryY=0.5;entryDx=0;entryDy=0;" edge="1" parent="1" source="4N45tYZfWJHQnx3_KCYK-1" target="4N45tYZfWJHQnx3_KCYK-2">
          <mxGeometry width="50" height="50" relative="1" as="geometry">
            <mxPoint x="140" y="100" as="sourcePoint" />
            <mxPoint x="190" y="50" as="targetPoint" />
          </mxGeometry>
        </mxCell>
        <mxCell id="4N45tYZfWJHQnx3_KCYK-10" value="«back-end»&lt;br&gt;&lt;b&gt;.NET WEB API&lt;/b&gt;" style="html=1;dropTarget=0;whiteSpace=wrap;" vertex="1" parent="1">
          <mxGeometry x="675" y="80" width="180" height="90" as="geometry" />
        </mxCell>
        <mxCell id="4N45tYZfWJHQnx3_KCYK-11" value="" style="shape=module;jettyWidth=8;jettyHeight=4;" vertex="1" parent="4N45tYZfWJHQnx3_KCYK-10">
          <mxGeometry x="1" width="20" height="20" relative="1" as="geometry">
            <mxPoint x="-27" y="7" as="offset" />
          </mxGeometry>
        </mxCell>
        <mxCell id="4N45tYZfWJHQnx3_KCYK-12" value="«front-end»&lt;br&gt;&lt;b&gt;ANGULAR UI&lt;/b&gt;" style="html=1;dropTarget=0;whiteSpace=wrap;" vertex="1" parent="1">
          <mxGeometry x="675" y="250" width="180" height="90" as="geometry" />
        </mxCell>
        <mxCell id="4N45tYZfWJHQnx3_KCYK-13" value="" style="shape=module;jettyWidth=8;jettyHeight=4;" vertex="1" parent="4N45tYZfWJHQnx3_KCYK-12">
          <mxGeometry x="1" width="20" height="20" relative="1" as="geometry">
            <mxPoint x="-27" y="7" as="offset" />
          </mxGeometry>
        </mxCell>
        <mxCell id="4N45tYZfWJHQnx3_KCYK-15" value="Usuário" style="shape=umlActor;verticalLabelPosition=bottom;verticalAlign=top;html=1;outlineConnect=0;" vertex="1" parent="1">
          <mxGeometry x="520" y="252" width="30" height="60" as="geometry" />
        </mxCell>
        <mxCell id="4N45tYZfWJHQnx3_KCYK-25" value="Solicita&lt;div&gt;Cálculo&lt;br&gt;Investimento&lt;/div&gt;" style="endArrow=open;endSize=12;dashed=1;html=1;rounded=0;entryX=0;entryY=0.25;entryDx=0;entryDy=0;exitX=1;exitY=0.3333333333333333;exitDx=0;exitDy=0;exitPerimeter=0;" edge="1" parent="1" source="4N45tYZfWJHQnx3_KCYK-15" target="4N45tYZfWJHQnx3_KCYK-12">
          <mxGeometry x="-0.2001" y="2" width="160" relative="1" as="geometry">
            <mxPoint x="390" y="220" as="sourcePoint" />
            <mxPoint x="550" y="220" as="targetPoint" />
            <mxPoint as="offset" />
          </mxGeometry>
        </mxCell>
        <mxCell id="4N45tYZfWJHQnx3_KCYK-27" value="Investimento" style="endArrow=open;endSize=12;dashed=1;html=1;rounded=0;entryX=0.25;entryY=1;entryDx=0;entryDy=0;exitX=0.25;exitY=0;exitDx=0;exitDy=0;" edge="1" parent="1" source="4N45tYZfWJHQnx3_KCYK-12" target="4N45tYZfWJHQnx3_KCYK-10">
          <mxGeometry width="160" relative="1" as="geometry">
            <mxPoint x="480" y="130" as="sourcePoint" />
            <mxPoint x="650" y="131" as="targetPoint" />
          </mxGeometry>
        </mxCell>
        <mxCell id="4N45tYZfWJHQnx3_KCYK-28" value="Retorno" style="html=1;verticalAlign=bottom;endArrow=open;dashed=1;endSize=8;curved=0;rounded=0;entryX=0.75;entryY=0;entryDx=0;entryDy=0;exitX=0.75;exitY=1;exitDx=0;exitDy=0;" edge="1" parent="1" source="4N45tYZfWJHQnx3_KCYK-10" target="4N45tYZfWJHQnx3_KCYK-12">
          <mxGeometry x="0.25" relative="1" as="geometry">
            <mxPoint x="685" y="328" as="sourcePoint" />
            <mxPoint x="530" y="312" as="targetPoint" />
            <mxPoint as="offset" />
          </mxGeometry>
        </mxCell>
        <mxCell id="4N45tYZfWJHQnx3_KCYK-39" value="Retorno" style="html=1;verticalAlign=bottom;endArrow=open;dashed=1;endSize=8;curved=0;rounded=0;exitX=0;exitY=0.5;exitDx=0;exitDy=0;entryX=1;entryY=1;entryDx=0;entryDy=0;entryPerimeter=0;" edge="1" parent="1" source="4N45tYZfWJHQnx3_KCYK-12" target="4N45tYZfWJHQnx3_KCYK-15">
          <mxGeometry relative="1" as="geometry">
            <mxPoint x="510" y="270" as="sourcePoint" />
            <mxPoint x="430" y="400" as="targetPoint" />
            <Array as="points">
              <mxPoint x="660" y="312" />
            </Array>
          </mxGeometry>
        </mxCell>
      </root>
    </mxGraphModel>
  </diagram>
</mxfile>
